<?xml version="1.0" encoding="UTF-8" standalone="no"?>
<!-- Created with Inkscape (http://www.inkscape.org/) -->

<svg
   width="250.12469mm"
   height="147.77559mm"
   viewBox="0 0 250.12469 147.77559"
   version="1.1"
   id="svg1"
   xml:space="preserve"
   inkscape:version="1.3 (0e150ed6c4, 2023-07-21)"
   sodipodi:docname="map-honduras.svg"
   xmlns:inkscape="http://www.inkscape.org/namespaces/inkscape"
   xmlns:sodipodi="http://sodipodi.sourceforge.net/DTD/sodipodi-0.dtd"
   xmlns="http://www.w3.org/2000/svg"
   xmlns:svg="http://www.w3.org/2000/svg"><sodipodi:namedview
     id="namedview1"
     pagecolor="#ffffff"
     bordercolor="#000000"
     borderopacity="0.25"
     inkscape:showpageshadow="2"
     inkscape:pageopacity="0.0"
     inkscape:pagecheckerboard="0"
     inkscape:deskcolor="#d1d1d1"
     inkscape:document-units="mm"
     inkscape:zoom="0.52347032"
     inkscape:cx="279.86305"
     inkscape:cy="163.33304"
     inkscape:window-width="1920"
     inkscape:window-height="1027"
     inkscape:window-x="1912"
     inkscape:window-y="22"
     inkscape:window-maximized="1"
     inkscape:current-layer="layer1" /><defs
     id="defs1" /><g
     inkscape:label="Layer 1"
     inkscape:groupmode="layer"
     id="layer1"
     transform="translate(-21.166719,-57.679186)"><path
       style="fill:#4c4c4c;stroke:none;fill-opacity:1"
       d="m 98.5185,173.7738 c -0.02,0.95047 -0.5505,2.2437 -0.284,3.1407 0.2709,0.91192 1.4078,1.141 1.8641,1.93619 0.4468,0.77853 0.082,1.71467 0.4316,2.51008 0.3516,0.80015 1.2709,1.17391 1.6861,1.94865 1.5999,2.98507 0.3118,5.53864 -2.3749,7.13313 l 0.5292,0.79375 v 0.26458 l -2.6459,2.91042 c 3.2627,0.2475 0.317,3.19717 1.6678,5.20858 0.7244,1.07878 2.4573,0.84872 3.3593,1.93517 l -0.7937,0.26458 c 0.6438,1.50674 1.5303,2.20413 3.175,1.85209 l -0.7938,1.32291 v 0.26459 c 4.7785,0 12.5448,1.49449 15.0106,-3.7795 1.1388,-2.43569 -0.831,-4.91501 1.453,-7.21663 0.7987,-0.80491 2.1732,-1.82785 3.3802,-1.7545 1.2379,0.0752 3.5097,2.44817 4.1482,0.0229 0.3858,-1.46551 -0.9356,-2.14256 -1.0649,-3.42224 -0.075,-0.7393 0.4609,-1.36705 0.424,-2.10625 -0.1266,-2.53723 -0.995,-5.16526 -1.2137,-7.67292 -0.1312,-1.50458 -0.9288,-2.10813 -0.4415,-3.70417 -2.019,0.75276 -5.0479,1.31872 -6.7236,2.64931 -1.9464,1.54542 -2.3232,5.5316 -5.4473,5.77285 -1.8152,0.14018 -5.4394,-2.70563 -6.3673,-4.21639 -0.4105,-0.66832 -0.3514,-1.63533 -0.9322,-2.19404 -0.9633,-0.92672 -3.3302,-0.45932 -4.6067,-1.10099 -1.3985,-0.70298 -1.9131,-2.4988 -3.4396,-2.76282 z"
       id="path3862-4" /><g
       id="g1"
       style="fill:#8e8e8e;fill-opacity:1"><path
         style="fill:#8e8e8e;stroke:none;fill-opacity:1"
         d="m 90.0518,193.08838 c -0.1658,1.08025 0.3216,1.22703 1.3229,1.05834 v -0.52917 z"
         id="path4230-4" /><path
         style="fill:#8e8e8e;stroke:none;fill-opacity:1"
         d="m 92.4331,192.03005 0.2646,-1.05833 c -2.7177,-1.2663 -2.9231,0.83417 -0.2646,1.05833 z"
         id="path4199-8" /><path
         style="fill:#8e8e8e;stroke:none;fill-opacity:1"
         d="m 87.9352,185.94463 c -0.8329,0.94041 -1.5122,1.04737 -2.6459,0.52917 h -0.2646 l -0.5291,1.05833 c 1.0641,0.0627 1.6218,0.37375 2.1166,1.32292 1.22,-0.40708 1.6101,-1.70942 1.323,-2.91042 z"
         id="path4122-7" /><path
         style="fill:#8e8e8e;stroke:none;fill-opacity:1"
         d="m 85.2893,183.56338 c 1.6585,-0.24508 2.2773,0.5889 2.6459,2.11667 h 1.3229 l -0.5292,-1.05833 c 0.9083,-0.1943 3.9704,0.16474 4.4116,1.12896 0.2923,0.63894 -0.1753,1.97102 0.086,2.83979 l 3.7278,-1.16348 4.7388,0.63431 c 1.251,-2.85479 -1.0194,-4.35684 -2.0589,-6.6156 -0.3345,-0.72693 0.062,-1.5913 -0.3401,-2.2706 -0.4756,-0.80307 -1.3875,-1.06687 -1.8343,-1.96172 -1.6329,-0.16833 -5.9129,-2.12785 -6.8767,-3.49613 -0.798,-1.13291 0.2811,-3.40619 -1.3358,-3.87055 -1.6192,-0.46499 -1.2803,2.24169 -1.564,3.13335 -0.6502,2.04315 -0.9365,4.07444 -1.5046,6.08542 -0.4609,1.6312 -1.3938,2.74292 -0.8897,4.49791 z"
         id="path3756-9" /></g><path
       style="fill:#a1a1a1;stroke:none;fill-opacity:1"
       d="m 128.681,147.31547 c -1.2105,2.07681 -3.0821,2.98397 -5.2917,3.70416 0.1,1.95991 -1.278,4.81548 -2.4651,6.33959 -0.6407,0.82261 -1.6375,1.35116 -1.9689,2.39554 -0.5048,1.59088 1.2632,2.96729 0.8072,4.47832 -0.3439,1.13963 -1.5526,0.91328 -2.4586,0.80947 0.01,2.38179 1.0116,8.17922 -3.175,8.03835 -0.8114,-0.0273 -1.6458,-0.58889 -2.3812,-0.8946 0.011,1.19905 0.9916,3.1538 0.4971,4.20455 -0.7256,1.54179 -3.1275,0.9561 -4.4659,1.3517 0.4246,2.14423 4.1161,6.11486 6.6134,5.29637 2.091,-0.68537 2.8206,-3.73057 4.1255,-5.21246 1.3056,-1.48271 5.5774,-2.54532 7.5174,-2.99433 0.5277,-3.26328 5.3234,-1.98134 7.6729,-2.53742 2.9149,-0.68993 7.478,2.35712 10.2279,0.63797 1.0457,-0.65373 0.9922,-2.15625 1.6463,-3.10395 0.7716,-1.11793 2.0008,-1.90885 2.8926,-2.9341 1.951,-2.24279 4.1163,-6.65764 7.6901,-6.27099 1.3424,0.14524 0.1853,2.30336 1.1314,3.15948 0.9322,0.84358 2.3637,2.2819 3.4747,2.81508 0.7173,0.34423 1.5351,-0.16014 2.232,0.27704 0.7223,0.45308 0.7543,1.43244 1.2811,2.04501 0.8928,1.03813 2.1003,0.71323 3.2905,0.62022 -0.8399,-2.16303 -1.0595,-6.74438 2.6459,-5.55625 l 3.9687,-3.175 c -1.7736,-2.38171 -4.9997,-2.03059 -7.6729,-2.41596 -4.4094,-0.63568 -8.8299,-2.0879 -13.2292,-2.88081 -3.3155,-0.59758 -3.2807,-5.06121 -5.8353,-5.8388 -1.4468,-0.44041 -3.4129,0.30618 -5.0126,0.018 -1.819,-0.32774 -3.0986,-1.77879 -5.0271,-2.02071 -1.2252,-0.1537 -2.2368,0.61824 -3.4395,0.66758 -1.795,0.0736 -3.5513,-0.72815 -5.2917,-1.02301 z"
       id="path2892-8" /><path
       style="fill:#848484;stroke:none;fill-opacity:1"
       d="m 67.2977,158.16338 c 0.1018,1.40177 1.0992,2.15414 1.4135,3.43959 0.1577,0.64468 -0.3808,1.66909 0.1178,2.19403 0.5161,0.54336 2.2011,0.006 2.9656,0.24765 1.5998,0.50523 3.1861,2.91128 3.7051,4.43748 3.9016,-0.74069 8.4097,-2.35404 11.3771,1.32292 1.7052,-1.07148 2.393,-0.78948 4.2334,-0.26458 0.6088,-2.35319 1.4144,-7.22387 -0.698,-9.10077 -1.7415,-1.54731 -6.5536,-1.55441 -6.1812,-4.92215 -1.2316,-1.14207 -0.6822,-2.168 0.7948,-2.78261 1.5916,-0.66233 6.2727,-0.40896 5.8206,-3.27791 -0.3013,-1.91176 -3.9769,-1.33552 -5.2925,-1.87861 -1.8827,-0.77718 -4.7718,-1.97885 -6.5001,-0.15863 -1.3065,1.37602 -1.7501,3.58717 -3.1925,5.08792 -0.8961,0.93238 -2.1837,0.95646 -3.1585,1.68284 -1.8668,1.39116 -3.0304,2.98859 -5.4051,3.97283 z"
       id="path2835-7" /><path
       style="fill:#262626;stroke:none;fill-opacity:1"
       d="m 65.9851,135.8016 c -3.2442,0.74119 -2.5082,4.38156 -3.9761,6.40267 -1.2805,1.76326 -4.4832,-0.50196 -5.7395,1.7004 -1.1232,1.96901 1.462,2.55771 2.2232,3.94405 0.7014,1.27734 0.6076,2.9565 1.3934,4.1729 1.39,2.15175 2.994,2.66945 2.6611,5.7649 -0.4094,3.80685 -4.9948,3.49637 -6.6193,6.27712 -0.6789,1.16218 -0.307,5.18309 1.5616,5.06873 0.7324,-0.0448 1.1857,-0.76435 1.8811,-0.9289 1.4811,-0.35048 3.2034,0.1001 4.7367,-0.42343 1.4188,-0.48439 3.6389,-3.90661 3.8153,-5.38332 0.1898,-1.58972 -2.4733,-3.14617 -1.0353,-4.61816 2.3052,-2.35969 5.8059,-3.55999 8.217,-5.65139 1.6868,-1.46312 1.9384,-3.40575 3.213,-5.04853 0.711,-0.91645 3.1253,-1.27121 3.2887,-2.42636 0.1393,-0.98515 -1.6431,-1.856 -2.1151,-2.63236 -0.8324,-1.36928 -1.7193,-3.44052 -2.8332,-4.53548 -1.794,-1.76348 -8.3281,-2.21844 -10.6726,-1.68284 z"
       id="path2453-0" /><path
       style="fill:#131313;stroke:none;fill-opacity:1"
       d="m 29.1977,132.4988 c 0.6597,1.25265 0.9052,5.54047 -0.5684,6.39961 -0.7971,0.4647 -1.7191,-0.19818 -2.5617,0.11391 -1.1408,0.42252 -4.546,3.77858 -4.8734,4.92052 -0.3075,1.07237 2.0531,1.42558 2.7118,1.74368 3.0575,1.47668 6.9039,1.92536 9.7608,3.53839 1.1683,0.65965 0.8708,2.08649 2.1454,2.59847 0.1493,-3.41489 4.2304,-6.44895 7.4084,-5.55625 0.4414,-2.18657 4.0569,-3.24449 3.1478,-5.80532 -0.9007,-2.53732 -4.509,0.79552 -6.3114,-0.13739 -1.5128,-0.78303 -1.1972,-2.28365 -2.0597,-3.46898 -2.563,-3.52208 -4.648,-4.34664 -8.7996,-4.34664 z"
       id="path2302-5" /><path
       style="fill:#717171;stroke:none;fill-opacity:1"
       d="m 45.0727,133.02797 c 0.1691,3.25966 3.4623,6.79135 1.7044,10.03967 -0.4917,0.90859 -1.4543,1.16472 -2.0856,1.92578 -1.5114,1.82211 -1.649,2.00687 -4.1168,1.5283 -1.1601,2.57404 -5.0209,2.85013 -3.965,6.61458 0.6759,2.41012 2.4473,1.60798 3.9612,2.73383 0.9824,0.73061 1.5419,2.14719 2.6956,2.625 0.8171,0.3384 1.6887,-0.22504 2.4599,0.0761 1.2714,0.4966 1.2615,2.6495 2.5264,3.43305 4.0279,2.49524 6.3857,1.44957 10.049,-0.76762 1.5606,-0.94452 2.98,-1.32076 3.3355,-3.33791 0.5601,-3.1782 -1.5195,-3.37998 -2.6336,-5.58483 -0.6896,-1.36483 -0.5408,-3.13389 -1.457,-4.41299 -0.7351,-1.02607 -2.1897,-1.27476 -2.3846,-2.7032 -0.4887,-3.58204 4.141,-3.17398 6.3147,-3.17398 l 1.5875,-5.02708 c -1.5785,-1.23975 -1.8299,-2.62564 -0.2646,-3.96875 v -0.26459 C 60.5022,131.42067 60.027,131.07439 60.6831,128.53 l -2.9104,-1.32292 c -3.3017,4.36888 -3.2527,-4.98108 -7.0872,-3.24319 -1.046,0.47405 -0.8809,1.52293 -1.1131,2.44944 -0.8456,3.3744 -0.059,6.61166 -4.4997,6.61459 z"
       id="path1924-0" /><path
       style="fill:#393939;stroke:none;fill-opacity:1"
       d="m 100.6352,137.52588 c -0.094,1.71224 -2.3634,2.63733 -2.1733,3.98019 0.3,2.11854 3.6028,3.72257 2.7665,6.07296 -0.4172,1.17248 -1.9185,1.53796 -2.2579,2.67442 -0.245,0.8203 0.4375,1.5354 0.3887,2.34327 -0.075,1.23644 -2.1397,3.34745 -3.0339,4.13942 -1.4598,1.29279 -3.7345,0.29304 -4.6733,2.2261 -0.7389,1.52143 0.9966,4.54504 1.0314,6.34489 0.044,2.26721 -2.6143,6.13705 -1.2613,8.06715 0.6238,0.88988 2.2331,1.06925 3.1276,1.63791 0.9074,0.57681 1.5905,1.13207 2.6459,1.40744 0.2891,-1.21444 -0.011,-3.25702 1.5916,-3.57391 1.7111,-0.33846 1.8955,2.15183 3.1825,2.8014 2.4461,1.23452 7.246,1.5763 9.778,0.50793 -0.3744,-1.14862 -1.3368,-2.7492 -0.6688,-3.92853 0.9072,-1.60186 2.9525,0.62592 4.3584,-0.61267 2.9176,-2.57031 -1.3187,-7.1404 3.7187,-7.36505 -0.3,-1.2659 -1.2414,-2.66176 -1.1774,-3.96875 0.1089,-2.22073 3.1578,-5.01867 4.2317,-6.92796 0.5071,-0.90157 0.2663,-1.99753 0.9986,-2.8014 1.5323,-1.68222 4.6078,-1.49717 5.1169,-4.29356 0.2976,-1.6352 -1.6425,-6.95849 -2.9305,-8.04264 -1.2649,-1.06476 -2.6693,-0.56608 -3.629,-2.28019 -0.8282,-1.47923 -1.6032,-3.01519 -1.5244,-4.75842 0.1604,-3.54901 2.706,-7.73234 -1.8797,-9.76692 -0.9358,-0.41522 -2.1632,-0.59283 -3.175,-0.737 -1.1654,-0.16607 -2.5931,-0.21363 -3.6925,0.26112 -1.8262,0.78859 -1.8425,4.05105 -2.4798,5.74387 -0.5087,1.35107 -1.9545,1.67881 -2.5352,2.92593 -0.461,0.9899 -0.1764,2.13944 -0.5615,3.15663 -0.7244,1.91366 -3.2572,4.59934 -5.283,4.76637 z"
       id="path1783-2" /><path
       style="fill:#2f2f2f;stroke:none;fill-opacity:1"
       d="m 86.3477,120.32797 1.0583,2.38125 -14.0229,9.26041 -0.5292,3.70417 c 4.5347,0.038 5.2466,3.04923 7.4451,6.24976 1.0697,1.55728 2.5031,1.5906 2.3445,3.80441 2.1103,0.36336 6.1726,0.95574 7.9259,2.11523 1.8004,1.19073 1.054,3.46036 -0.5666,4.51568 -1.5552,1.01275 -4.0152,0.89468 -5.7718,1.57117 v 0.52917 c 0.7169,0.66425 0.8898,0.93616 0.5292,1.85208 v 0.26458 c 1.2072,0.80567 2.7659,2.35286 4.2333,2.50967 1.6152,0.17258 2.0068,-1.28052 3.2026,-1.93335 0.8857,-0.48355 1.9538,-0.18566 2.8789,-0.54815 1.3079,-0.51246 2.4724,-2.24016 3.064,-3.46775 0.5316,-1.10316 -0.3162,-2.0804 0.058,-3.16357 0.4272,-1.23621 2.1487,-1.54148 2.3185,-2.92286 0.2735,-2.2249 -3.098,-3.57945 -2.912,-5.8188 0.08,-0.96489 0.9998,-1.35299 1.553,-2.01031 1.2707,-1.50986 0.9262,-2.69509 3.3305,-2.75321 0.2049,-1.83898 1.5545,-2.08278 2.374,-3.49491 0.7559,-1.30259 0.079,-3.06116 0.2425,-4.44259 0.1084,-0.91463 0.6843,-1.68121 0.4397,-2.64073 -0.8645,-3.39218 -5.3397,-0.5519 -6.9961,-1.17021 -1.8076,-0.67473 -2.329,-4.53411 -4.3652,-5.27452 -0.8551,-0.31093 -1.7512,0.56821 -2.5428,0.76987 -1.5379,0.39179 -3.7195,0.28131 -5.2916,0.11351 z"
       id="path1713-6" /><path
       style="fill:#686868;stroke:none;fill-opacity:1"
       d="m 28.6685,131.70505 c 4.6834,-0.86945 7.3608,1.16605 10.1328,4.83825 0.6773,0.89728 0.4889,2.42326 1.5481,3.00452 1.4256,0.78239 3.9161,-0.92614 5.517,-0.9636 -0.3704,-1.41597 -2.459,-4.75944 -1.2347,-5.94945 0.9256,-0.8997 2.8484,-0.19797 3.3691,-1.49808 0.3574,-0.89227 -0.095,-1.93983 0.021,-2.87122 0.1602,-1.28192 0.7137,-2.68879 1.0194,-3.96875 -4.0351,-3.14843 0.7428,-4.55923 0.4381,-8.20209 -0.2068,-2.47212 -2.5285,-4.926 -3.6131,-7.14375 -3.3761,0.65101 -6.0768,3.80893 -8.7313,5.78715 -2.4068,1.79365 -5.9985,2.08987 -8.0912,4.16372 -1.4957,1.48227 0.1425,2.51129 -0.1695,4.07205 -0.3093,1.54769 -2.0836,2.5536 -2.3692,3.99243 -0.2774,1.39808 1.7612,3.34644 2.1633,4.73882 z"
       id="path1314-5" /><path
       style="fill:#1c1c1c;stroke:none;fill-opacity:1"
       d="m 46.6602,108.15713 c 0.5534,3.06687 3.8514,5.29766 3.7725,8.46667 -0.045,1.79916 -3.1396,4.11813 -2.1671,5.79102 0.9711,1.67048 3.0037,-0.0352 4.4787,0.53101 1.7455,0.67 2.2653,3.21493 2.9117,4.79047 0.809,-0.23867 1.2131,-1.00042 1.9513,-1.23676 0.8672,-0.27763 3.447,1.24037 3.7497,2.08032 0.2672,0.74145 -0.4922,1.48717 -0.1088,2.20038 0.4351,0.80957 1.6919,0.85335 2.0499,1.76654 0.3723,0.94988 -1.6485,2.61683 -0.119,3.34505 0.8386,0.3993 2.7984,-1.14551 3.854,-1.22737 1.3603,-0.10549 3.7423,0.92923 4.9429,0.19783 1.0274,-0.62585 0.2467,-1.95689 0.6656,-2.83631 0.4527,-0.95042 1.646,-1.09835 1.9909,-2.18445 0.9455,-2.97802 -0.9055,-4.14246 -1.0767,-6.86773 -0.093,-1.48477 1.0687,-2.72649 1.1502,-4.23333 -3.5075,-0.18236 -3.8004,-3.61186 -2.1167,-6.08542 -0.5694,-0.844 -1.2866,-1.62036 -1.4964,-2.64583 -0.2371,-1.15836 0.2214,-2.58781 -0.403,-3.64783 -0.6059,-1.02855 -1.9975,-1.29911 -2.7447,-2.222 -0.7757,-0.95828 -0.5658,-2.32313 -1.4297,-3.27585 -0.7133,-0.7867 -1.7253,-0.5237 -2.647,-0.79518 -1.7657,-0.52008 -3.8204,-1.8225 -5.8313,-1.08794 -1.3867,0.50656 -2.6281,2.09755 -3.7041,3.06741 -2.2414,2.02015 -5.0478,4.61358 -7.6729,6.1093 z"
       id="path775-2" /><path
       style="fill:#555555;stroke:none;fill-opacity:1"
       d="m 119.156,120.85713 c 4.8135,3.67041 1.3414,7.34998 2.2038,12.17084 0.649,3.6281 3.3607,2.69495 4.9889,5.03871 1.1296,1.62594 1.944,4.22438 2.6265,6.07379 0.2961,0.80248 0.1561,1.78534 0.8789,2.37879 2.2121,1.81629 4.7915,0.22027 7.029,0.16129 2.0564,-0.0542 3.4718,1.61969 5.2916,2.10789 1.7424,0.46741 3.6011,-0.40997 5.2907,-0.0555 2.5151,0.5276 2.7162,4.77901 5.2927,5.79553 1.6788,0.66238 3.5703,0.23191 5.2916,0.59694 2.6008,0.55153 5.0617,1.74034 7.673,2.29224 2.2617,0.47802 4.6975,0.212 6.8791,1.10039 1.395,0.56803 2.4064,1.80579 3.7042,2.5558 1.2453,-1.71564 3.3142,-1.64107 4.6143,-3.02494 1.4043,-1.49484 1.097,-4.04301 3.1037,-5.17 2.3577,-1.32412 6.0034,0.69759 7.3632,-2.12381 -3.4594,-2.55567 -1.4068,-5.40204 0,-8.46667 0.4029,-0.87889 -0.01,-2.04383 0.5388,-2.84243 0.8387,-1.23242 3.0374,0.89875 4.1654,-0.96504 0.6884,-1.1376 -0.3933,-2.24183 -0.021,-3.33628 1.4421,-4.24033 0.8166,-8.7687 0.6213,-13.22916 -0.068,-1.55672 0.4386,-3.78944 -0.1701,-5.24288 -0.3839,-0.91667 -1.5235,-1.48326 -2.1977,-2.17607 -1.3918,-1.43018 -2.1178,-3.53943 -3.9937,-4.43075 -1.2979,-0.61675 -3.0512,-0.20135 -4.2045,-1.00995 -1.9405,-1.36047 -1.2304,-4.21135 -2.8057,-5.75693 -1.595,-1.56484 -4.5785,-1.10231 -6.4825,-2.34103 -1.9235,-1.25141 -5.8261,-5.52315 -8.2021,-5.1108 -1.177,0.20429 -2.1986,1.25138 -3.175,1.87618 -2.2909,1.46598 -4.7136,2.75813 -6.8791,4.41095 -1.6383,1.25037 -3.1651,2.97984 -5.2917,3.29749 -2.2303,0.33313 -4.3812,0.16151 -6.6146,0.6782 -1.0039,0.23226 -1.8686,1.25834 -2.8867,1.29903 -1.4428,0.0577 -2.819,-2.3089 -4.5216,-2.50497 -2.4161,-0.27824 -4.9729,1.76807 -7.1438,2.43739 -1.6028,0.49419 -3.4302,0.22908 -4.9668,1.16348 -1.0432,0.63435 -0.9944,2.12252 -1.6463,3.06332 -0.8561,1.2354 -2.4092,1.57683 -3.215,2.94288 -1.2901,2.1869 -1.2667,4.25419 -3.1365,6.34612 z"
       id="path631-3" /><path
       style="fill:#979797;stroke:none;fill-opacity:1"
       d="m 83.9664,91.48838 c 0.7568,1.36645 2.1465,3.37504 1.4787,5.02709 -0.3633,0.89871 -1.2476,1.46481 -1.5836,2.38125 -0.5065,1.38123 0.2747,2.86633 -0.3418,4.23333 -1.2927,2.86677 -3.6201,4.6969 -4.845,7.67292 0.7599,0.66747 1.0315,1.77222 1.8903,2.30775 1.5305,0.95439 3.6053,0.8961 4.9283,2.24957 1.1288,1.15481 -0.14,3.09966 1.1804,3.90098 2.0811,1.26302 5.1372,-0.72337 7.0813,-0.87583 1.7837,-0.13988 4.3588,4.15183 4.7635,5.64669 3.8385,-0.86725 9.6799,-0.93058 7.1437,4.7625 h 0.2646 l 2.1167,-1.32291 c 0.6173,-3.17252 1.0989,-7.49059 5.0271,-7.88462 1.984,-0.19901 4.54,1.3697 6.2804,-0.16762 1.7182,-1.51778 1.3085,-4.15976 2.7203,-5.94598 0.7476,-0.94577 1.966,-1.32134 2.6795,-2.24446 0.7449,-0.96372 0.6453,-2.31779 1.6216,-3.1648 1.6352,-1.4186 3.8622,-1.09633 5.7492,-1.63037 4.387,-1.24157 7.7552,-4.30885 11.3761,0.40035 2.7091,-1.50261 4.3923,-3.91909 3.4395,-7.14375 -2.7416,0.50111 -4.4775,-1.51341 -6.8791,-2.50946 -1.5902,-0.6595 -5.6488,-0.81442 -7.4084,-0.61552 -2.6405,0.29848 -4.6134,2.45305 -7.4083,2.78281 -2.7081,0.31953 -5.1658,-1.14884 -7.9375,-0.28091 -4.6648,1.46074 -11.2255,5.01712 -16.404,3.71396 -1.6563,-0.41681 -1.6055,-2.68941 -2.9496,-2.99534 -2.4398,-0.55535 -5.052,1.77565 -7.5773,-0.24478 -2.722,-2.1777 -1.2928,-8.66243 -6.4066,-8.05285 z"
       id="path521-1" /><path
       style="fill:#7b7b7b;stroke:none;fill-opacity:1"
       d="m 78.6747,86.4613 -6.086,3.89056 -2.6452,2.36369 -3.7042,-1.49175 -2.5362,1.8039 -4.6075,5.07527 c 2.2873,0 5.1577,0.32721 7.1388,1.54993 0.9552,0.58952 1.3935,1.62709 2.3862,2.15423 -0.507,2.91441 2.7611,2.88524 3.3128,5.55625 0.2219,1.07451 -0.1395,2.36995 0.2862,3.38426 0.2605,0.6207 1.0769,0.95878 1.1206,1.67039 0.087,1.41423 -1.2045,2.60201 -0.7791,4.19026 0.3873,1.44548 2.1942,0.89786 2.7412,2.17035 0.6262,1.45675 -0.8775,2.74346 -0.8215,4.19516 0.09,2.32281 1.4833,3.81541 1.2835,6.35 l 10.5834,-6.87917 c -0.5502,-1.24092 -1.0655,-2.60203 -1.1962,-3.96875 -0.085,-0.89362 0.4778,-1.7722 -0.2223,-2.53518 -2.0921,-2.27984 -6.1341,-1.29276 -6.9686,-5.18265 -0.6052,-2.82099 3.3797,-5.24136 4.5479,-7.36342 0.7332,-1.33161 -0.04,-2.5897 0.2126,-3.96773 0.2027,-1.10789 1.155,-1.71441 1.6597,-2.65727 1.2259,-2.28985 -2.9066,-5.91314 0.9085,-6.33958 -0.096,-1.06159 -0.8118,-1.91288 -0.9109,-2.91042 -0.1643,-1.65418 1.4191,-2.83313 2.2338,-3.96875 l -5.5172,0.74476 z"
       id="path251-3" /><path
       style="fill:#424242;stroke:none;fill-opacity:1"
       d="m 87.6706,83.02172 -2.9104,4.23333 v 0.26458 c 1.2413,1.00936 0.8425,2.1106 1.5946,3.30362 0.9112,1.44525 2.2008,2.09987 2.812,3.84013 0.4632,1.31887 0.625,3.66189 1.9787,4.38318 2.4118,1.28507 4.9229,-0.88239 7.1033,-0.23007 1.6509,0.49392 1.1793,2.7855 2.9272,3.16418 2.8511,0.6177 6.0273,-0.96222 8.7196,-1.54423 1.3977,-0.30216 2.879,-0.0915 4.2333,-0.60592 1.4617,-0.55519 2.6487,-1.6273 4.2333,-1.90517 2.5214,-0.44211 4.9385,0.91027 7.4084,0.44016 2.5647,-0.48816 4.8655,-2.80477 7.4083,-2.78303 1.6786,0.0143 4.5946,0.0796 6.161,0.47732 1.5846,0.40236 2.7725,1.59612 4.4223,1.77858 V 97.5738 c -1.8714,-0.94386 -0.6777,-2.1041 -1.2281,-3.62863 -0.7615,-2.1089 -3.0931,-2.86224 -3.0052,-5.3672 -3.3814,-1.87286 -6.1367,-0.58289 -9.7896,-0.28929 -1.3517,0.10864 -2.9595,-0.48696 -4.2333,-0.18619 -1.7423,0.41139 -3.1629,1.35439 -5.0271,1.59628 -1.6795,0.21793 -3.4023,-0.50333 -5.0271,-0.78865 -2.3638,-0.41508 -4.7904,-0.48696 -7.1437,-0.99647 -2.0322,-0.43997 -4.0216,-1.48077 -6.0854,-1.71367 -1.9618,-0.22138 -3.068,1.96843 -4.7636,2.36696 -1.3724,0.32261 -2.7592,-0.85718 -3.9677,-1.31189 l 0.7938,1.5875 h -3.9688 l 1.5875,-3.43958 v -0.26459 z"
       id="path233-9" /><path
       style="fill:#5e5e5e;stroke:none;fill-opacity:1"
       d="m 197.4727,80.37588 0.2645,52.3875 h 0.2646 c 1.5386,-1.81167 5.4687,-5.80578 8.1335,-3.7946 1.8395,1.38833 1.7144,3.86431 3.5131,5.07281 1.7651,1.18594 4.3652,0.98063 6.3451,1.63017 1.2416,0.40734 2.1378,1.33047 3.4396,1.58954 1.0024,-1.06982 4.6104,-4.86211 5.2916,-2.64583 l 2.4862,0.22865 1.4371,-3.26014 2.1765,1.20676 3.1607,-0.55652 c -0.4171,-1.25532 0.336,-3.04676 1.3229,-1.32292 l 2.1167,0.79375 7.4083,-1.29617 11.3771,-5.84758 c 0.468,-1.09474 1.2954,-3.45664 2.65641,-3.6221 0.83501,-0.10152 1.50034,0.60431 2.36676,0.43035 0.76972,-0.15454 1.34705,-0.94681 2.14422,-0.93052 2.58956,0.0529 5.3737,1.75202 7.91383,0.68269 v -0.26459 c -1.70046,-0.70703 -3.47418,-1.44248 -4.6592,-2.91429 -1.54787,-1.92245 -1.71446,-4.60628 -3.22931,-6.52374 -1.24755,-1.57912 -3.47624,-2.10644 -5.34066,-2.46822 -0.17439,1.12803 0.84891,2.19947 0.5951,3.11845 -0.59791,2.16485 -4.04785,2.08147 -5.62215,2.17322 0.052,-1.79248 1.1354,-4.03031 2.9104,-2.11667 2.26385,-2.09969 -0.7988,-3.01394 -2.6458,-3.175 -0.8161,2.39211 -6.8104,6.28118 -5.5563,1.32292 l -0.2646,-0.26458 c -2.6479,0.75727 -7.1996,3.98804 -7.9375,-0.79375 -1.1814,0.10349 -2.0076,-0.13652 -2.3812,-1.32292 -2.8502,0.29259 -4.2244,-2.22683 -4.2334,-4.7625 h 0.7938 c -0.1398,-1.365 -0.5996,-2.52426 -1.8521,-3.175 -1.0169,1.912 -2.8404,0.32025 -2.9104,-1.32292 2.3557,0.73794 6.8721,-1.71406 5.5562,2.11667 l 1.5875,-1.5875 c 1.9737,-0.11394 4.9832,1.17575 5.5563,3.175 l 3.175,0.79375 v -0.26458 c -5.1333,-2.55705 -9.6662,-8.04992 -14.0229,-11.75478 -1.4327,-1.21826 -2.993,-3.23964 -4.7625,-3.92403 -1.6295,-0.63021 -5.4086,-0.77981 -7.0989,-0.38157 -2.0423,0.48118 -2.7117,3.17437 -4.8074,0.97913 -2.6282,2.16744 -3.2158,-0.73126 -2.6458,-2.91042 l -3.4396,-0.79375 c -0.2577,1.23927 -1.9948,2.77694 -3.3526,1.92293 -1.2114,-0.76191 -0.7932,-2.12745 -1.4236,-3.14254 -0.8949,-1.44101 -4.2312,-2.2713 -5.8071,-2.48456 z"
       id="path188-8" /><path
       style="fill:#aaaaaa;stroke:none;fill-opacity:1"
       d="m 164.9289,79.58213 c -0.6855,2.5467 -3.0567,1.43599 -4.7625,2.38921 -3.5928,2.00779 -6.8629,1.12307 -10.5833,2.25508 -1.7841,0.54286 -2.8982,2.18985 -4.4979,3.0566 -1.013,0.5488 -3.8723,0.91357 -4.479,1.75654 -0.6043,0.83956 0.6735,1.89271 1.1202,2.47251 1.4147,1.83628 1.9504,2.70765 1.5067,5.0034 0.9165,0.31036 2.043,0.34566 2.8818,0.83724 2.9694,1.74026 1.8103,5.3258 1.0869,7.89401 2.3861,-0.55043 5.5123,-0.0366 7.6729,-1.23085 3.3436,-1.84804 6.5678,-4.58736 9.7896,-6.70747 1.1775,-0.77482 2.7575,-2.32334 4.2334,-2.35655 2.5264,-0.0568 6.1322,3.86602 8.202,5.21266 2.0205,1.31449 4.7114,0.82058 6.5795,2.34063 1.6761,1.36384 1.1902,3.74256 2.4178,5.30718 1.0444,1.33113 3.5851,0.82565 5.0218,1.73979 2.3262,1.4801 3.0114,4.42647 5.5601,5.74877 L 196.4143,80.1113 c -2.8093,0.12868 -4.2104,2.33499 -6.6146,3.43039 -2.6034,1.18624 -5.1948,0.86737 -7.9375,1.09223 -1.0929,0.0896 -2.0795,0.6997 -3.175,0.70188 -3.9333,0.008 -7.3022,-4.87568 -11.1125,-4.16617 z"
       id="path170-9" /><g
       id="g2"
       style="fill:#090909;fill-opacity:1"><path
         style="fill:#090909;stroke:none;fill-opacity:1"
         d="m 118.8914,74.02588 -1.8521,1.5875 0.7938,-0.26458 0.2646,0.79375 2.9104,-0.52917 0.5291,-1.05833 z"
         id="path130-4" /><path
         style="fill:#090909;stroke:none;fill-opacity:1"
         d="m 132.9143,67.4113 9.2841,-4.66307 3.90805,-1.369989 4.23005,0.08068 -1.19876,-0.597648 -2.38216,-0.305411 c -3.7289,0.16008 -7.38308,2.035449 -10.66628,3.656149 -1.6222,0.80081 -3.0203,1.14825 -3.175,3.19929 z"
         id="path64-0"
         sodipodi:nodetypes="ccccccsc" /><path
         style="fill:#090909;stroke:none;fill-opacity:1"
         d="m 159.3727,61.85505 3.9687,-2.11667 -0.2646,-1.32291 1.3229,-0.26459 c -2.4417,-1.73108 -4.2716,1.71319 -5.027,3.70417 z"
         id="path22-9" /></g><circle
       style="fill:#27c196;fill-opacity:1;stroke-width:0.0336499"
       id="path2-3-1-6"
       cx="33.546097"
       cy="142.61339"
       r="1.5" /><circle
       style="fill:#954073;fill-opacity:1;stroke-width:0.0336499"
       id="path2-5-5-6-5"
       cx="38.932106"
       cy="124.94122"
       r="1.5" /><circle
       style="fill:#f9f871;fill-opacity:1;stroke-width:0.0336499"
       id="path2-53-8-7"
       cx="63.677135"
       cy="119.5042"
       r="1.5" /><circle
       style="fill:#27615d;fill-opacity:1;stroke-width:0.0336499"
       id="path2-4-8-2-7"
       cx="109.71464"
       cy="112.09585"
       r="1.5" /><circle
       style="fill:#eee8a9;fill-opacity:1;stroke-width:0.0336499"
       id="path2-99-7-3-2"
       cx="111.56672"
       cy="192.79376"
       r="1.5" /><circle
       style="fill:#654000;fill-opacity:1;stroke-width:0.0336499"
       id="path2-53-2-6-2"
       cx="50.447968"
       cy="150.72502"
       r="1.5" /><circle
       style="fill:#965fae;fill-opacity:1;stroke-width:0.0336499"
       id="path2-9-8-9-8"
       cx="169.77505"
       cy="90.929192"
       r="1.5" /><circle
       style="fill:#3b63b4;fill-opacity:1;stroke-width:0.0336499"
       id="path2-41-5-0-2"
       cx="78.758385"
       cy="159.98543"
       r="1.5" /><circle
       style="fill:#94f58b;fill-opacity:1;stroke-width:0.0336499"
       id="path2-0-4-0-6"
       cx="67.910469"
       cy="149.4021"
       r="1.5" /><circle
       style="fill:#009bdb;fill-opacity:1;stroke-width:0.0336499"
       id="path2-99-3-8"
       cx="219.51672"
       cy="114.4771"
       r="1.5" /><circle
       style="fill:#a14f00;fill-opacity:1;stroke-width:0.0336499"
       id="path2-4-83-1"
       cx="134.0563"
       cy="162.63127"
       r="1.5" /><circle
       style="fill:#ff8f7f;fill-opacity:1;stroke-width:0.0336499"
       id="path2-9-6-5"
       cx="162.36671"
       cy="129.02917"
       r="1.5" /><circle
       style="fill:#a966b9;fill-opacity:1;stroke-width:0.0336499"
       id="path2-6-2"
       cx="111.30213"
       cy="151.25418"
       r="1.5" /><circle
       style="fill:#00e9be;fill-opacity:1;stroke-width:0.0336499"
       id="path2-50-8-8"
       cx="89.870872"
       cy="136.7021"
       r="1.5" /><circle
       style="fill:#f26ea2;fill-opacity:1;stroke-width:0.0336499"
       id="path2-0-1-5"
       cx="109.45005"
       cy="95.691689"
       r="1.5" /><circle
       style="fill:#00bbff;fill-opacity:1;stroke-width:0.0336499"
       id="path2-41-4-9"
       cx="75.583382"
       cy="103.89376"
       r="1.5" /><circle
       style="fill:#ffc265;fill-opacity:1;stroke-width:0.0336499"
       id="path2-5-3-1"
       cx="92.781303"
       cy="180.88753"
       r="1.5" /><circle
       style="fill:#b92c5b;fill-opacity:1;stroke-width:0.0336499"
       id="path2-3-8-7-8"
       cx="139.38356"
       cy="64.542038"
       r="1.5" /></g></svg>
